<?xml version="1.0" standalone="no"?>
<!DOCTYPE svg PUBLIC "-//W3C//DTD SVG 20010904//EN"
 "http://www.w3.org/TR/2001/REC-SVG-20010904/DTD/svg10.dtd">
<svg version="1.0" xmlns="http://www.w3.org/2000/svg"
 width="512.000000pt" height="512.000000pt" viewBox="0 0 512.000000 512.000000"
 preserveAspectRatio="xMidYMid meet">
<metadata>
Created by potrace 1.11, written by Peter Selinger 2001-2013
</metadata>
<g transform="translate(0.000000,512.000000) scale(0.100000,-0.100000)"
fill="#000000" stroke="none">
<path d="M2269 4038 c-156 -260 -287 -480 -291 -489 -6 -15 32 -82 211 -379 5
-8 352 -586 772 -1285 419 -698 767 -1276 773 -1283 9 -9 137 -12 598 -10
l586 3 -925 1540 c-509 847 -934 1554 -943 1570 -10 17 -91 152 -180 300 -90
149 -168 279 -174 290 -45 81 -130 215 -136 215 -4 0 -135 -213 -291 -472z
m922 -958 c342 -569 629 -1048 639 -1065 10 -16 178 -297 374 -623 196 -327
356 -595 356 -598 0 -2 -159 -4 -353 -4 l-352 0 -35 58 c-19 31 -40 66 -46 77
-6 11 -41 68 -77 128 -37 59 -67 110 -67 113 0 3 -13 24 -28 47 -15 23 -33 51
-39 62 -7 11 -47 78 -90 150 -43 71 -80 134 -82 140 -2 5 -7 12 -10 15 -6 4
-138 222 -167 275 -6 11 -145 243 -309 515 -164 272 -305 509 -315 525 -10 17
-91 152 -180 300 -187 311 -200 333 -200 344 0 4 17 36 38 70 20 34 48 81 62
104 113 193 246 407 252 405 4 -2 287 -469 629 -1038z"/>
<path d="M2497 3644 c-31 -52 -57 -100 -57 -106 0 -5 343 -581 762 -1279 l761
-1269 124 0 c69 0 123 4 121 9 -7 20 -1643 2741 -1648 2741 -3 0 -31 -43 -63
-96z"/>
<path d="M1170 2208 c-266 -443 -247 -411 -308 -514 -29 -49 -57 -96 -63 -104
-31 -50 -236 -393 -257 -430 -13 -25 -31 -52 -38 -61 -8 -8 -14 -18 -14 -21 0
-3 -29 -53 -65 -112 -36 -58 -65 -111 -65 -116 0 -6 -4 -10 -10 -10 -5 0 -10
-4 -10 -9 0 -5 -31 -60 -69 -122 l-70 -114 590 -3 c324 -1 854 -1 1178 0 l589
3 -144 240 c-79 132 -148 247 -153 255 -5 8 -204 340 -442 737 -239 397 -436
722 -439 723 -3 0 -97 -154 -210 -342z m268 -140 c309 -513 762 -1270 762
-1274 0 -2 -369 -4 -821 -4 -461 0 -819 4 -817 9 12 31 814 1358 819 1355 4
-2 29 -41 57 -86z"/>
<path d="M1145 1392 c-126 -211 -231 -389 -233 -393 -2 -5 208 -9 467 -9 259
0 471 2 471 4 0 8 -452 761 -464 772 -8 9 -69 -86 -241 -374z"/>
</g>
</svg>
